<svg version="1" xmlns="http://www.w3.org/2000/svg" width="682.667" height="682.667" viewBox="0 0 512.000000 512.000000"><path d="M232 1.1c-49.1 4.7-98.1 24.6-136.6 55.7C35.5 105 0 179.2 0 256c0 57.7 20.4 115.5 56.8 160.6C105 476.5 179.2 512 256 512c57.7 0 115.5-20.4 160.6-56.8C476.5 407 512 332.8 512 256c0-57.7-20.4-115.5-56.8-160.6C411.9 41.6 348.1 7.5 278.5 1c-12.5-1.1-34-1.1-46.5.1zm-55 146.2c1.9 1.2 4.3 3.8 5.4 5.7 2 3.4 2.1 5.2 2.4 47.2l.3 43.8H328v-43.3c0-42.9 0-43.3 2.3-47.7 2.9-5.9 7.1-8 15.7-8 8.2 0 12.7 2.2 15.7 7.5 2 3.5 2.3 5.4 2.3 16.5v12.5l2.6-4.3c3.4-5.7 6.7-7.2 15.7-7.2 6 0 8 .4 10.8 2.3 5.6 3.7 6.9 7.6 7 20.7 0 9.4.2 11.1 1.2 9.5.7-1.1 2.6-3.4 4.3-5.2 3.1-3.2 3.4-3.3 12-3.3 10.4 0 14.6 1.9 17 7.5 2 5 2.1 118.9 0 123.9-2.5 6.1-5.7 7.6-15.8 7.6-4.9 0-9.8-.5-10.9-1.1-1.1-.5-3.3-2.8-4.9-5.1l-3-4.1v11.2c0 12.2-1 16-5.5 20.1-2.3 2.2-3.8 2.5-10.9 2.8-9.9.5-13.2-.9-16.8-6.5l-2.3-3.8-.5 13c-.6 14.5-1.4 17-7.3 20.5-2.4 1.5-5 2-10.7 2-9.2 0-13.2-2.1-16-8.3-1.8-3.9-2-6.9-2-43V292l-71.5.2-71.5.3-.3 39-.2 39-2.4 4.2c-3.1 5.4-7.1 7.3-15.6 7.3-8 0-12.7-1.9-15.5-6.5-1.7-2.7-2-5-2.1-14.1 0-6-.4-11.8-.8-12.9-.8-2-.8-1.9-1.5.2-.4 1.2-2.3 3.6-4.2 5.2-3.3 2.9-3.9 3.1-11.7 3.1-14.6 0-17.7-3.8-18.5-22.3l-.5-11.8-2.1 3.8c-2.9 5.2-5.6 6.3-15.9 6.3-8.5 0-8.8-.1-12.3-3.3-2.2-2-3.8-4.7-4.4-7.2-1.2-5.2-1.2-112.8 0-118 .6-2.5 2.2-5.2 4.4-7.3 3.4-3.1 3.9-3.2 12.1-3.2 10.2 0 13.6 1.4 16.4 6.8 1.5 2.7 2 3.2 2.1 1.7 0-1.1.2-6.5.4-12.1.2-8.3.6-10.7 2.4-13.6 3.4-5.5 7.4-7.1 16.9-6.7 8.8.4 10.8 1.5 14.4 7.4 1.1 1.6 1.9 2.8 2 2.5.1-.3.4-6.4.8-13.6.7-14.3 1.1-15.5 7.6-19.5 4.6-2.9 16.1-2.6 20.5.4z"/></svg>